<?xml version="1.0" standalone="no"?>
<!DOCTYPE svg PUBLIC "-//W3C//DTD SVG 20010904//EN"
 "http://www.w3.org/TR/2001/REC-SVG-20010904/DTD/svg10.dtd">
<svg version="1.0" xmlns="http://www.w3.org/2000/svg"
 width="70.000000pt" height="70.000000pt" viewBox="0 0 70.000000 70.000000"
 preserveAspectRatio="xMidYMid meet">
<metadata>
Created by potrace 1.14, written by Peter Selinger 2001-2017
</metadata>
<g transform="translate(0.000000,70.000000) scale(0.100000,-0.100000)"
fill="#000000" stroke="none">
<path d="M0 350 l0 -350 350 0 350 0 0 350 0 350 -350 0 -350 0 0 -350z m368
268 c13 -13 16 -75 6 -103 -4 -8 -20 -23 -37 -31 -39 -20 -47 -9 -47 69 0 51
3 59 23 67 31 12 41 12 55 -2z m0 -183 c17 -37 16 -349 0 -362 -19 -14 -61
-14 -70 0 -4 7 -8 83 -8 171 l0 158 28 28 c35 35 36 35 50 5z"/>
</g>
</svg>
